<svg width="175" height="64" viewBox="0 0 175 64" fill="none" xmlns="http://www.w3.org/2000/svg">
<path d="M43.528 20.792C46.76 20.792 49.32 21.752 51.208 23.672C53.128 25.56 54.088 28.408 54.088 32.216V47H46.6V33.368C46.6 31.32 46.168 29.8 45.304 28.808C44.472 27.784 43.272 27.272 41.704 27.272C39.944 27.272 38.552 27.848 37.528 29C36.504 30.12 35.992 31.8 35.992 34.04V47H28.504V33.368C28.504 29.304 26.872 27.272 23.608 27.272C21.88 27.272 20.504 27.848 19.48 29C18.456 30.12 17.944 31.8 17.944 34.04V47H10.456V21.176H17.608V24.152C18.568 23.064 19.736 22.232 21.112 21.656C22.52 21.08 24.056 20.792 25.72 20.792C27.544 20.792 29.192 21.16 30.664 21.896C32.136 22.6 33.32 23.64 34.216 25.016C35.272 23.672 36.6 22.632 38.2 21.896C39.832 21.16 41.608 20.792 43.528 20.792Z" fill="black"/>
<path fill-rule="evenodd" clip-rule="evenodd" d="M32 64C49.6731 64 64 49.6731 64 32C64 14.3269 49.6731 0 32 0C14.3269 0 0 14.3269 0 32C0 49.6731 14.3269 64 32 64ZM32 62C48.5685 62 62 48.5685 62 32C62 15.4315 48.5685 2 32 2C15.4315 2 2 15.4315 2 32C2 48.5685 15.4315 62 32 62Z" fill="black"/>
<path d="M86.104 45V25.632H80.488V35.208C80.488 36.936 80.08 38.244 79.264 39.132C78.448 39.996 77.368 40.428 76.024 40.428C73.408 40.428 72.1 38.868 72.1 35.748V25.632H66.484V36.576C66.484 39.456 67.228 41.628 68.716 43.092C70.204 44.556 72.22 45.288 74.764 45.288C75.964 45.288 77.08 45.072 78.112 44.64C79.144 44.184 80.032 43.536 80.776 42.696V45H86.104Z" fill="black"/>
<path d="M93.1068 44.712C94.6428 45.096 96.2148 45.288 97.8228 45.288C99.7188 45.288 101.351 45.036 102.719 44.532C104.111 44.004 105.167 43.272 105.887 42.336C106.607 41.4 106.967 40.332 106.967 39.132C106.967 37.716 106.595 36.612 105.851 35.82C105.107 35.028 104.231 34.488 103.223 34.2C102.215 33.888 100.919 33.6 99.3348 33.336C97.9188 33.12 96.8868 32.892 96.2388 32.652C95.5908 32.412 95.2668 31.992 95.2668 31.392C95.2668 30.864 95.5668 30.432 96.1668 30.096C96.7668 29.76 97.6668 29.592 98.8668 29.592C100.883 29.592 102.743 30.072 104.447 31.032L106.319 27.036C105.431 26.508 104.303 26.1 102.935 25.812C101.591 25.5 100.235 25.344 98.8668 25.344C97.0188 25.344 95.4108 25.608 94.0428 26.136C92.6988 26.664 91.6668 27.408 90.9468 28.368C90.2508 29.304 89.9028 30.384 89.9028 31.608C89.9028 33.072 90.2748 34.2 91.0188 34.992C91.7868 35.784 92.6868 36.336 93.7188 36.648C94.7508 36.96 96.0588 37.236 97.6428 37.476C98.9868 37.644 99.9828 37.848 100.631 38.088C101.279 38.328 101.603 38.724 101.603 39.276C101.603 40.452 100.415 41.04 98.0388 41.04C96.8628 41.04 95.6628 40.872 94.4388 40.536C93.2148 40.176 92.1708 39.72 91.3068 39.168L89.4348 43.2C90.3468 43.8 91.5708 44.304 93.1068 44.712Z" fill="black"/>
<path d="M128 27.504C126.536 26.064 124.604 25.344 122.204 25.344C120.956 25.344 119.804 25.548 118.748 25.956C117.692 26.34 116.792 26.904 116.048 27.648V18.288H110.432V45H116.048V35.424C116.048 33.696 116.468 32.4 117.308 31.536C118.148 30.648 119.276 30.204 120.692 30.204C121.964 30.204 122.936 30.588 123.608 31.356C124.28 32.1 124.616 33.24 124.616 34.776V45H130.232V33.912C130.232 31.08 129.488 28.944 128 27.504Z" fill="black"/>
<path fill-rule="evenodd" clip-rule="evenodd" d="M150.046 27.504C148.438 26.064 146.134 25.344 143.134 25.344C141.574 25.344 140.05 25.548 138.562 25.956C137.098 26.364 135.838 26.94 134.782 27.684L136.798 31.608C137.494 31.056 138.334 30.624 139.318 30.312C140.326 29.976 141.346 29.808 142.378 29.808C143.866 29.808 144.982 30.144 145.726 30.816C146.47 31.464 146.842 32.4 146.842 33.624H142.378C139.546 33.624 137.446 34.14 136.078 35.172C134.734 36.204 134.062 37.62 134.062 39.42C134.062 40.548 134.35 41.556 134.926 42.444C135.502 43.332 136.33 44.028 137.41 44.532C138.514 45.036 139.81 45.288 141.298 45.288C144.178 45.288 146.146 44.388 147.202 42.588V45H152.458V33.948C152.458 31.068 151.654 28.92 150.046 27.504ZM145.258 40.86C144.514 41.292 143.662 41.508 142.702 41.508C141.718 41.508 140.938 41.304 140.362 40.896C139.81 40.464 139.534 39.888 139.534 39.168C139.534 37.656 140.686 36.9 142.99 36.9H146.842V38.88C146.53 39.744 146.002 40.404 145.258 40.86Z" fill="black"/>
<path fill-rule="evenodd" clip-rule="evenodd" d="M172.265 27.504C170.657 26.064 168.353 25.344 165.353 25.344C163.793 25.344 162.269 25.548 160.781 25.956C159.317 26.364 158.057 26.94 157.001 27.684L159.017 31.608C159.713 31.056 160.553 30.624 161.537 30.312C162.545 29.976 163.565 29.808 164.597 29.808C166.085 29.808 167.201 30.144 167.945 30.816C168.689 31.464 169.061 32.4 169.061 33.624H164.597C161.765 33.624 159.665 34.14 158.297 35.172C156.953 36.204 156.281 37.62 156.281 39.42C156.281 40.548 156.569 41.556 157.145 42.444C157.721 43.332 158.549 44.028 159.629 44.532C160.733 45.036 162.029 45.288 163.517 45.288C166.397 45.288 168.365 44.388 169.421 42.588V45H174.677V33.948C174.677 31.068 173.873 28.92 172.265 27.504ZM167.477 40.86C166.733 41.292 165.881 41.508 164.921 41.508C163.937 41.508 163.157 41.304 162.581 40.896C162.029 40.464 161.753 39.888 161.753 39.168C161.753 37.656 162.905 36.9 165.209 36.9H169.061V38.88C168.749 39.744 168.221 40.404 167.477 40.86Z" fill="black"/>
</svg>
